# xmcd
#
# Track frame offsets:
#	150
#	17306
#	31697
#	47130
#	63709
#	85159
#	99830
#	118702
#	140549
#	161544
#	175664
#	189562
#	202122
#	217483
#	232113
#	245458
#	260526
#	276971
#	294369
#	314920
#	329265
#
# Disc length: 4584 seconds
#
# Revision: 2
# Processed by: cddbd v1.5.2PL0 Copyright (c) Steve Scherf et al.
# Submitted via: audiograbber 1.83.01
#
DISCID=3c11e615
DTITLE=Various Artist - The World's Best Award Winning Country 2
DYEAR=2003
DGENRE=Country
TTITLE0=Faith Hill - Cry
TTITLE1=Lee Kernaghan - Something In The Water
TTITLE2=Terri Clark - I Just Wanna Be Mad
TTITLE3=Alan Jackson - That'd Be Alright
TTITLE4=Keith Urban - Raining On Sunday
TTITLE5=Jason McCoy - Ten Million Teardrops
TTITLE6=Martina McBride - Concrete Angel
TTITLE7=Adam Brand - The Anzac
TTITLE8=Carolyn Dawn Johnson - I Don't Want You To Go
TTITLE9=Toby Keith - Who's Your Daddy
TTITLE10=Melinda Schneider - Can You Hear Me Down The Hillside
TTITLE11=Emerson Drive - Fall Into Me
TTITLE12=Brooks and Dunn - Lucky Me Lonely You
TTITLE13=Troy Cassar-Daley - Long Way Home
TTITLE14=Lisa Brokop - Don't Believe Me
TTITLE15=Kenny Chesney - The Good Stuff
TTITLE16=Travis Sinclair - My Baby Love My Rig
TTITLE17=Joe Nichols - Brokenheartville
TTITLE18=Willie Nelson and Lee Anne Womack - Mendicino Country Line
TTITLE19=Steve Fox - You'll Find Love
TTITLE20=Brad Paisley - I'm Gonna Miss Her
EXTD=
EXTT0=
EXTT1=
EXTT2=
EXTT3=
EXTT4=
EXTT5=
EXTT6=
EXTT7=
EXTT8=
EXTT9=
EXTT10=
EXTT11=
EXTT12=
EXTT13=
EXTT14=
EXTT15=
EXTT16=
EXTT17=
EXTT18=
EXTT19=
EXTT20=
PLAYORDER=
